<svg width="1088" height="1088" fill="none" xmlns="http://www.w3.org/2000/svg"><g clip-path="url(#prefix__clip0_1_2)"><path fill="#100044" d="M0 0h1088v1088H0z"/><path d="M840.751 336.858H688.037v165.123h39.133V370.264h111.672c6.682 0 11.454 4.773 11.454 11.454v120.263h40.087V386.49c0-27.679-21.952-49.632-49.632-49.632zm-481.05 131.716H248.982c-6.681 0-11.453-4.772-11.453-11.453V336.858h-40.088v115.491c0 27.679 21.953 49.632 49.633 49.632h112.627v20.044c0 6.681-5.727 12.408-12.409 12.408h-98.31c-6.681 0-12.408-5.727-12.408-12.408v-3.818h-39.133c0 26.725 21.953 48.677 49.633 48.677h103.082c27.679.955 49.632-21.952 49.632-47.723V336.858h-40.087v131.716zm235.753-131.716H491.417c-26.725 0-48.678 21.953-48.678 49.632v65.859c0 27.679 21.953 49.632 48.678 49.632h104.037c27.679 0 49.632-22.907 49.632-49.632V386.49c0-27.679-21.953-49.632-49.632-49.632zm9.544 120.263c0 6.681-4.772 11.453-11.453 11.453H494.28c-6.681 0-12.408-4.772-12.408-11.453v-75.403c0-6.681 5.727-11.454 11.454-11.454h100.219c6.681 0 11.453 4.773 11.453 11.454v75.403zm328.336 11.453h32.452v32.452h-32.452v-32.452zM116.312 306.315c0-19.089-15.272-35.315-35.316-35.315H39v33.406h38.179v161.305c0 20.044 15.271 36.27 35.315 36.27h41.996v-33.407h-38.178V306.315zm243.389 345.517H246.119c-26.725 0-49.632 21.953-49.632 48.678v65.858c0 27.679 22.907 49.632 49.632 49.632h152.715V585.974h-39.133v65.858zm0 92.583v39.133H248.028c-5.727 0-11.454-5.727-11.454-12.408v-74.448c0-6.681 5.727-12.408 11.454-12.408h111.673v60.131zm235.753-92.583H491.417c-26.725 0-48.678 21.953-48.678 48.678v65.858c0 27.679 21.953 49.632 48.678 49.632h104.037c26.725 0 48.677-21.953 48.677-49.632h.955-40.088v3.818c0 7.635-5.727 13.362-12.408 13.362h-98.31c-6.681 0-12.408-5.727-12.408-12.408v-20.998h163.214V700.51c0-26.725-22.907-48.678-49.632-48.678zm9.544 65.858H481.872v-20.998c0-6.681 5.727-12.408 11.454-12.408h100.219c5.726 0 11.453 5.727 11.453 12.408v20.998zm245.298 15.271c0 4.773-1.909 8.591-5.727 10.5l-56.313 32.451-55.359-32.451c-3.818-1.909-5.727-5.727-5.727-10.5v-82.084h-40.088v83.039c0 14.317 7.636 27.679 20.999 35.315L788.256 816l81.129-46.769c12.408-7.636 20.044-20.998 20.044-35.315v-83.039h-39.133v82.084z" fill="#00D391"/><path d="M933.335 783.548h115.485V816H933.335v-32.452z" fill="#80F"/></g><defs><clipPath id="prefix__clip0_1_2"><path fill="#fff" d="M0 0h1088v1088H0z"/></clipPath></defs></svg>