<svg width="1088" height="1088" fill="none" xmlns="http://www.w3.org/2000/svg"><g clip-path="url(#prefix__clip0_1_2)"><path fill="#100044" d="M0 0h1088v1088H0z"/><path d="M794.41 369.118H665.537v139.345h33.023V397.309h94.239c5.638 0 9.666 4.028 9.666 9.666v101.488h33.829v-97.461c0-23.358-18.526-41.884-41.884-41.884zM388.459 480.272h-93.433c-5.638 0-9.666-4.028-9.666-9.666V369.118h-33.829v97.461c0 23.358 18.526 41.884 41.884 41.884h95.044v16.914c0 5.638-4.833 10.471-10.471 10.471h-82.962c-5.638 0-10.471-4.833-10.471-10.471v-3.222h-33.024c0 22.553 18.526 41.079 41.884 41.079h86.989c23.359.805 41.884-18.526 41.884-40.273V369.118h-33.829v111.154zm198.948-111.154h-87.795c-22.553 0-41.078 18.526-41.078 41.884v55.577c0 23.358 18.525 41.884 41.078 41.884h87.795c23.358 0 41.884-19.331 41.884-41.884v-55.577c0-23.358-18.526-41.884-41.884-41.884zm8.055 101.488c0 5.638-4.028 9.666-9.666 9.666h-83.767c-5.639 0-10.471-4.028-10.471-9.666v-63.631c0-5.638 4.832-9.666 9.665-9.666h84.573c5.638 0 9.666 4.028 9.666 9.666v63.631zm277.077 9.666h27.386v27.385h-27.386v-27.385zM183.067 343.344c0-16.11-12.887-29.802-29.802-29.802h-35.44v28.191h32.218v136.122c0 16.915 12.888 30.608 29.802 30.608h35.44v-28.191h-32.218V343.344zM388.459 634.92h-95.85c-22.552 0-41.883 18.525-41.883 41.078v55.577c0 23.358 19.331 41.883 41.883 41.883h128.874V579.343h-33.024v55.577zm0 78.129v33.024H294.22c-4.832 0-9.665-4.833-9.665-10.471v-62.826c0-5.638 4.833-10.471 9.665-10.471h94.239v50.744zm198.948-78.129h-87.795c-22.553 0-41.078 18.525-41.078 41.078v55.577c0 23.358 18.525 41.883 41.078 41.883h87.795c22.553 0 41.079-18.525 41.079-41.883h.805-33.829v3.221c0 6.444-4.833 11.277-10.471 11.277h-82.962c-5.639 0-10.471-4.833-10.471-10.471v-17.72h137.733v-41.884c0-22.553-19.331-41.078-41.884-41.078zm8.055 55.576H491.558v-17.72c0-5.638 4.832-10.471 9.665-10.471h84.573c4.833 0 9.666 4.833 9.666 10.471v17.72zm207.003 12.888c0 4.027-1.611 7.249-4.833 8.86l-47.522 27.385-46.717-27.385c-3.222-1.611-4.833-4.833-4.833-8.86v-69.27h-33.829v70.075c0 12.082 6.444 23.358 17.72 29.802l67.659 39.467 68.464-39.467c10.471-6.444 16.914-17.72 16.914-29.802v-70.075h-33.023v69.27z" fill="#00D391"/><path d="M872.54 746.073H970v27.385h-97.46v-27.385z" fill="#80F"/></g><defs><clipPath id="prefix__clip0_1_2"><path fill="#fff" d="M0 0h1088v1088H0z"/></clipPath></defs></svg>